<svg xmlns="http://www.w3.org/2000/svg" width="100" height="100" fill="none"><rect width="100" height="100" fill="url(#a)" rx="12"/><path fill="url(#b)" d="m77.3 87.8-2.7 4.7h-5.5l-5.6-10h4.7c2 0 3.7-.6 5.2-1.6l3.9 6.9ZM68.7 79h-.2.2ZM89 67l-5.3 9.6h-7c.4-1 .6-2 .6-3.2V67H89Zm-15.2 6.4v.3a5.9 5.9 0 0 1 0-.3Zm-59.3-13V72L11 66l3.1-5.5h.4Zm6-15.1-4.2 9.5H4.7L2 50l2.7-4.8h15.7Zm52-2.2-1.2 2.2-1.3-3a8.6 8.6 0 0 0-2.5-3.4l.7-.1 4.4 4.3ZM38 37.7h-.5.5ZM29.2 34c-.4.9-.7 1.9-.7 3l-1.2.2 1.9-3.2Zm38.4 1.3a8 8 0 0 1 .3 0h-.3Zm-5-17.2a5 5 0 0 0-3 3.2 5 5 0 0 0-3.1 3l-.5 1.3L45.7 7.6l10.9-.1 6 10.7Zm12-10.6 2.7 4.8-4.2 7.3a10.5 10.5 0 0 0-6.6-2.2c-1.1 0-2.2.1-3.3.5l6-10.4h5.4Z"/><path fill="url(#c)" d="m54.9 92.4-10.7.1-5.6-10h10.7l5.6 9.9Zm-23.2 0h-5.3l-2.8-4.8 3-5.1h10.7l-5.6 10Zm4.5-28Zm.6-1.1a5.8 5.8 0 0 0-.1.2l.1-.2ZM74.5 45a5.6 5.6 0 0 0 4.1 1.7c1.6 0 3-.6 4-1.7l.7-.7-.4.7h12.4L98 50l-2.7 4.8H77.5l-1.2 2.1-.5-1.2-4.2-9.5 1.4-2.4 1.5 1.4Zm3.4-1.9a2.2 2.2 0 0 0 .2 0h-.2Zm11.3-9.1-4.3 7.6.1-1.5V40c0-1.3-.6-2.6-1.7-3.7l-4-4 4.4-7.6 5.5 9.5Zm-8.3 4.6.1.2a2.2 2.2 0 0 1-.1-.2l-3.3-3.2 3.3 3.2ZM40.5 23.3h12.7l2.6 4.6a13.8 13.8 0 0 0 0 .9l-1.5-.1H37.5a8.9 8.9 0 0 0-7.6 4.1H12l5.3-9.5h12.5l-6.2-11 2.6-4.8h5.5l8.8 15.8Z"/><path fill="#fff" d="M63 22.6c0-.5.3-.9 1-1.2a6 6 0 0 1 2.5-.4c2 0 3.7.7 5.1 2.1a7.4 7.4 0 0 1 1.5 8l7.8 7.6c.4.4.6 1 .6 1.6 0 .6-.2 1.1-.6 1.6l-.8.7c-.4.5-1 .7-1.5.7-.7 0-1.2-.2-1.7-.6L69.3 35a7.9 7.9 0 0 1-2.7.5 7 7 0 0 1-5.2-2.1 7 7 0 0 1-2.1-5.1c0-1 .1-2 .4-2.6.3-.6.7-1 1.2-1l.5.2.4.3 3.1 3 1.6-1.5-3.1-3.1-.3-.5v-.5ZM23.6 79c-1.6 0-2.9-.5-4-1.6-1-1.1-1.6-2.4-1.6-4v-11h14c0 .8.2 1.5.7 2 .6.6 1.2.8 2 .8s1.3-.3 1.6-1c.3-.6.7-1.2 1.2-1.7h16.8a2.7 2.7 0 0 0 2.8 2.8c.7 0 1.2-.4 1.5-1 .3-.7.7-1.3 1.2-1.8h14v11c0 1.5-.6 2.8-1.7 3.9-1 1-2.4 1.6-4 1.6H23.7Zm-4.4-22L25 43.7c.4-1 1-1.8 2-2.4 1-.6 2-.9 3-.9h2v-2.7c0-1.6.5-2.8 1.6-4 1-1 2.4-1.5 4-1.5h16.6c1.6 0 2.9.5 4 1.6 1 1 1.6 2.3 1.6 3.9v2.7h2a5.4 5.4 0 0 1 5 3.3L72.6 57H59.8c0-.8-.2-1.5-.8-2-.5-.5-1.2-.8-2-.8-.7 0-1.2.3-1.5 1-.3.7-.7 1.2-1.3 1.8H37.5c0-.8-.2-1.5-.8-2-.5-.5-1.2-.8-2-.8-.7 0-1.2.3-1.5 1-.3.7-.7 1.2-1.3 1.8H19.2Zm18.3-16.6h16.8v-2.7H37.5v2.7Z"/><defs><linearGradient id="b" x1="76.7" x2="59.1" y1="47.7" y2="17.6" gradientUnits="userSpaceOnUse"><stop offset=".2" stop-color="#7EB1DD"/></linearGradient><linearGradient id="c" x1="63.4" x2="81.3" y1="70.8" y2="41.1" gradientUnits="userSpaceOnUse"><stop offset="1" stop-color="#5277C3"/></linearGradient><radialGradient id="a" cx="0" cy="0" r="1" gradientTransform="matrix(0 50 -50 0 50 50)" gradientUnits="userSpaceOnUse"><stop offset=".5" stop-color="#091A3D"/><stop offset="1" stop-color="#000819"/></radialGradient></defs></svg>